<svg width="37" height="37" viewBox="0 0 37 37" fill="none" xmlns="http://www.w3.org/2000/svg">
<path d="M30.7707 28.5391H6.20703V29.832H30.7707V28.5391Z" fill="white"/>
<path d="M18.4886 24.0146C15.8519 24.0146 13.6807 25.9889 13.3613 28.5395H23.6155C23.2958 25.9892 21.1246 24.0146 18.4886 24.0146Z" fill="white"/>
<path d="M19.1351 18.1968H17.8418V22.0753H19.1351V18.1968Z" fill="white"/>
<path d="M11.6443 21.4291L10.7305 22.3433L13.0021 24.6142L13.916 23.7L11.6443 21.4291Z" fill="white"/>
<path d="M25.3572 21.4351L23.0586 23.7009L23.9724 24.6155L26.2707 22.3442L25.3572 21.4351Z" fill="white"/>
<path d="M22.1262 10.976L18.4651 7.31348L14.835 10.9443L15.7492 11.8585L17.8415 9.76585V15.0098H19.1348V9.81158L21.2116 11.8898L22.1262 10.976Z" fill="white"/>
</svg>
