<svg width="37" height="37" viewBox="0 0 37 37" fill="none" xmlns="http://www.w3.org/2000/svg">
<path d="M30.5149 28.7534H5.95117V30.0464H30.5149V28.7534Z" fill="white"/>
<path d="M18.2327 24.229C15.596 24.229 13.4248 26.2032 13.1055 28.7539H23.3596C23.0399 26.2036 20.8687 24.229 18.2327 24.229Z" fill="white"/>
<path d="M18.8793 18.4111H17.5859V22.2897H18.8793V18.4111Z" fill="white"/>
<path d="M11.3895 21.6439L10.4756 22.5581L12.7472 24.829L13.6611 23.9149L11.3895 21.6439Z" fill="white"/>
<path d="M25.1014 21.6494L22.8027 23.9153L23.7166 24.8298L26.0148 22.5586L25.1014 21.6494Z" fill="white"/>
<path d="M14.5789 11.5621L18.24 15.2246L21.8701 11.5938L20.9559 10.6796L18.8636 12.7722L18.8636 7.52832L17.5703 7.52832L17.5703 12.7265L15.4934 10.6482L14.5789 11.5621Z" fill="white"/>
</svg>
